<svg width="451" height="362" viewBox="0 0 451 362" fill="none" xmlns="http://www.w3.org/2000/svg">
<path d="M376.02 131.139L310.94 127.311L346.925 195.07L368.746 277.377L410.474 285.8L419.662 232.587L423.873 180.906L410.474 143.389L376.02 131.139Z" fill="#241F19" stroke="black"/>
<path d="M429.128 212.935C423.309 218.448 422.875 251.728 423.386 267.679C415.423 288.198 394.036 300.474 384.338 304.047C386.89 298.688 392.836 287.892 396.205 287.586C400.416 287.203 405.01 271.124 405.01 264.233C405.01 257.343 404.627 225.568 405.01 212.935C405.393 200.302 410.752 175.036 411.135 164.317C411.518 153.597 403.479 145.176 396.205 141.73C390.386 138.973 358.561 133.946 343.376 131.776V121.44C353.84 121.823 379.744 124.426 399.651 131.776C415.38 137.584 418.719 148.898 419.144 154.503C421.868 145.874 439.321 128.064 442.527 124.503C445.283 121.44 437.55 117.612 433.339 116.081C435.381 115.443 440.843 115.162 446.355 119.143C453.246 124.12 444.824 133.691 435.636 145.176C426.448 156.661 427.214 176.567 435.636 184.224C444.058 191.88 436.402 206.045 429.128 212.935Z" fill="#7C4A1B"/>
<path d="M423.386 267.679C422.875 251.728 423.309 218.448 429.128 212.935C436.402 206.045 444.058 191.88 435.636 184.224C427.214 176.567 426.448 156.661 435.636 145.176C444.824 133.691 453.246 124.12 446.355 119.143C440.843 115.162 435.381 115.443 433.339 116.081C437.55 117.612 445.283 121.44 442.527 124.503C439.082 128.331 419.175 148.621 418.792 156.277C418.409 163.934 424.534 140.964 399.651 131.776C379.744 124.426 353.84 121.823 343.376 121.44V131.776C358.561 133.946 390.386 138.973 396.205 141.73C403.479 145.176 411.518 153.597 411.135 164.317C410.752 175.036 405.393 200.302 405.01 212.935C404.627 225.568 405.01 257.343 405.01 264.233C405.01 271.124 400.416 287.203 396.205 287.586C392.836 287.892 386.89 298.688 384.338 304.047C394.036 300.474 415.423 288.198 423.386 267.679Z" stroke="black" stroke-width="3" stroke-linecap="round" stroke-linejoin="round"/>
<path d="M391.183 136.173C398.757 137.38 414.103 143.352 414.894 157.578" stroke="white" stroke-opacity="0.3" stroke-width="3" stroke-linecap="round" stroke-linejoin="round"/>
<path d="M420.696 268.061C418.37 265.177 413.719 257.623 413.719 250.479C413.719 241.549 417.905 216.431 420.696 213.083" stroke="white" stroke-opacity="0.3" stroke-width="3" stroke-linecap="round" stroke-linejoin="round"/>
<path d="M418.976 168.92C420.626 162.322 425.07 147.955 429.654 143.267C435.121 137.676 441.181 130.899 442.403 129.045C442.451 128.967 442.498 128.89 442.545 128.813C442.509 128.879 442.462 128.956 442.403 129.045C436.193 139.21 423.947 160.473 423.533 166.055C423.117 171.68 423.36 179.511 423.533 182.723L418.976 168.92Z" fill="white" fill-opacity="0.3"/>
<path d="M74.3872 131.139L139.467 127.311L103.482 195.07L81.661 277.377L39.9332 285.8L30.7455 232.587L26.5344 180.906L39.9332 143.389L74.3872 131.139Z" fill="#241F19" stroke="black"/>
<path d="M21.2791 212.935C27.098 218.448 27.5318 251.728 27.0213 267.679C34.9838 288.198 56.3712 300.474 66.0696 304.047C63.5175 298.688 57.5709 287.892 54.2021 287.586C49.991 287.203 45.3972 271.124 45.3972 264.233C45.3972 257.343 45.78 225.568 45.3972 212.935C45.0143 200.302 39.6548 175.036 39.272 164.317C38.8891 153.597 46.9284 145.176 54.2021 141.73C60.021 138.973 91.8461 133.946 107.031 131.776V121.44C96.5675 121.823 70.6632 124.426 50.7563 131.776C35.0274 137.584 31.6882 148.898 31.2634 154.503C28.5394 145.874 11.0857 128.064 7.8803 124.503C5.12397 121.44 12.857 117.612 17.0681 116.081C15.0263 115.443 9.56472 115.162 4.05206 119.143C-2.83876 124.12 5.58337 133.691 14.7711 145.176C23.9589 156.661 23.1933 176.567 14.7711 184.224C6.34901 191.88 14.0054 206.045 21.2791 212.935Z" fill="#7C4A1B"/>
<path d="M27.0213 267.679C27.5318 251.728 27.098 218.448 21.2791 212.935C14.0054 206.045 6.34901 191.88 14.7711 184.224C23.1933 176.567 23.9589 156.661 14.7711 145.176C5.58337 133.691 -2.83876 124.12 4.05206 119.143C9.56472 115.162 15.0263 115.443 17.0681 116.081C12.857 117.612 5.12397 121.44 7.8803 124.503C11.3257 128.331 31.2325 148.621 31.6154 156.277C31.9982 163.934 25.8728 140.964 50.7563 131.776C70.6632 124.426 96.5675 121.823 107.031 121.44V131.776C91.8461 133.946 60.021 138.973 54.2021 141.73C46.9284 145.176 38.8891 153.597 39.272 164.317C39.6548 175.036 45.0143 200.302 45.3972 212.935C45.78 225.568 45.3972 257.343 45.3972 264.233C45.3972 271.124 49.991 287.203 54.2021 287.586C57.5709 287.892 63.5175 298.688 66.0696 304.047C56.3712 300.474 34.9838 288.198 27.0213 267.679Z" stroke="black" stroke-width="3" stroke-linecap="round" stroke-linejoin="round"/>
<path d="M59.2241 136.173C51.65 137.38 36.3042 143.352 35.5137 157.578" stroke="white" stroke-opacity="0.3" stroke-width="3" stroke-linecap="round" stroke-linejoin="round"/>
<path d="M29.7114 268.061C32.0371 265.177 36.6885 257.623 36.6885 250.479C36.6885 241.549 32.5021 216.431 29.7114 213.083" stroke="white" stroke-opacity="0.3" stroke-width="3" stroke-linecap="round" stroke-linejoin="round"/>
<path d="M31.4312 168.92C29.7817 162.322 25.337 147.955 20.7534 143.267C15.2863 137.676 9.22633 130.899 8.00401 129.045C7.95634 128.967 7.90902 128.89 7.86207 128.813C7.89784 128.879 7.94536 128.956 8.00401 129.045C14.2144 139.21 26.4602 160.473 26.8737 166.055C27.2904 171.68 27.0474 179.511 26.8737 182.723L31.4312 168.92Z" fill="white" fill-opacity="0.3"/>
<path d="M219.915 157.405C213.283 155.963 205.616 164.495 202.612 168.941L194.682 193.453L205.856 203.186L231.45 199.581V183.72C230.369 175.549 226.548 158.847 219.915 157.405Z" fill="white" stroke="black" stroke-width="3" stroke-linecap="round" stroke-linejoin="round"/>
<path d="M406.139 267.368C398.333 259.561 397.254 230 397.69 216.195L372.937 230.714L327.834 259.87L319.385 308.306L348.898 310.21C352.349 310.368 361.132 310.781 368.653 311.162C378.054 311.638 384.956 304.14 398.285 297C411.614 289.86 415.898 277.126 406.139 267.368Z" fill="#6A1A15" stroke="black"/>
<path d="M352.3 260.189L393.116 222.853L396.826 224.244L398.681 250.217L367.606 268.074L368.766 290.105L358.794 291.96L354.62 310.048L345.575 308.657V284.075L360.417 278.278L352.3 260.189Z" fill="black" fill-opacity="0.5"/>
<path d="M52.7127 267.368C60.5195 259.561 61.5983 230 61.1619 216.195L85.9153 230.714L131.018 259.87L139.467 308.306L109.954 310.21C106.503 310.368 97.7206 310.781 90.1994 311.162C80.798 311.638 73.8957 304.14 60.5671 297C47.2384 289.86 42.9541 277.126 52.7127 267.368Z" fill="#6A1A15" stroke="black"/>
<path d="M106.552 260.189L65.7365 222.853L62.0261 224.244L60.1709 250.217L91.2459 268.074L90.0864 290.105L100.058 291.96L104.233 310.048L113.277 308.657V284.075L98.435 278.278L106.552 260.189Z" fill="black" fill-opacity="0.5"/>
<path d="M110.523 255.198L103.773 248.949C103.773 240.549 111.273 228.783 115.023 223.95L123.022 235.949L110.523 255.198Z" fill="white" stroke="black"/>
<path d="M103.894 249.034C102.199 244.458 110.447 231.848 114.401 226.198L119.062 231.071L107.622 252.257L103.894 249.034Z" fill="black" fill-opacity="0.5"/>
<path d="M346.281 247.802L353.637 242.28C354.502 233.925 348.252 221.45 345.02 216.256L335.828 227.369L346.281 247.802Z" fill="white" stroke="black"/>
<path d="M353.377 243.729C355.203 239.204 347.324 226.36 343.534 220.599L338.735 225.334L349.557 246.842L353.377 243.729Z" fill="black" fill-opacity="0.5"/>
<path d="M243.42 153.685C236.787 152.243 229.121 160.774 226.116 165.22L218.186 189.732L229.361 199.465L254.955 195.86V179.999C253.873 171.829 250.052 155.127 243.42 153.685Z" fill="white" stroke="black" stroke-width="3" stroke-linecap="round" stroke-linejoin="round"/>
<path fill-rule="evenodd" clip-rule="evenodd" d="M279.031 66.4525L282.249 67.2162L304.285 49.3856L324.302 41.4796L347.684 35.2554L363.833 34.0784L378.131 49.3856L394.784 62.5061L405.886 61.1604L413.792 57.9644L417.418 59.2403C417.439 58.7337 417.406 58.1799 417.311 57.5739C416.469 52.1836 410.783 54.8264 405.639 57.2174C403.449 58.2357 401.356 59.2084 399.778 59.4953C396.404 60.1088 381.084 45.6425 369.26 34.4781C362.566 28.1572 356.993 22.8947 355.343 22.0265C351.805 20.164 337.002 26.9663 323.813 33.0272C319.992 34.7826 316.307 36.4759 313.071 37.8785C300.076 43.5095 284.738 59.4912 279.031 66.4525Z" fill="#A9635E"/>
<path fill-rule="evenodd" clip-rule="evenodd" d="M305.882 70.7522L321.41 69.7818C332.512 67.595 355.086 63.2214 356.566 63.2214C356.681 63.2214 356.941 63.2231 357.328 63.2255C363.185 63.2626 398.081 63.4836 396.977 60.959C395.799 58.2676 367.668 35.1296 362.622 31.4289C357.575 27.7282 353.706 27.7285 348.66 30.2517C343.614 32.7749 338.399 34.6247 331.334 36.1387C328.521 36.7416 326.241 37.1311 324.091 37.4984C320.842 38.0535 317.889 38.5579 313.84 39.6714C308.457 41.1517 297.804 50.4931 293.15 54.9788L276.665 66.7537L275.979 70.7522H305.882Z" fill="#84211A"/>
<path d="M277.769 67.8255C274.694 72.0528 267.52 73.2695 264.318 73.3494H310.213L377.88 76.1151L370.763 70.7319L374.563 71.1882C378.887 72.3891 398.582 66.3845 404.346 65.1835C410.111 63.9826 418.757 64.7032 417.556 57.0172C416.355 49.3313 405.307 57.978 400.023 58.9387C394.739 59.8994 360.152 23.8717 355.589 21.4698C351.025 19.068 327.727 31.077 313.316 37.3218C298.905 43.5666 281.611 62.5413 277.769 67.8255Z" stroke="black"/>
<path fill-rule="evenodd" clip-rule="evenodd" d="M408.519 55.359C407.193 56.8225 406.046 58.2207 405.381 59.0901C403.194 61.9497 396.97 61.1087 392.933 60.0994C388.896 59.0901 373.925 44.1191 370.224 40.4184C366.524 36.7177 359.795 39.0725 353.067 42.2685C351.102 43.2017 349.754 43.9771 348.659 44.6073C346.002 46.1357 344.829 46.8103 339.946 46.8103C334.429 46.8103 331.143 57.3517 330.19 62.6225C322.61 61.0268 290.865 66.7455 275.398 69.9109C271.881 72.4718 266.671 73.2846 264.073 73.3494H309.968L319.148 73.7246H344.992L348.258 74.9144L377.635 76.1151L370.518 70.7319L374.318 71.1882C377.489 72.0689 388.927 69.0741 397.075 66.9409C400.037 66.1654 402.564 65.5037 404.101 65.1835C405.206 64.9533 406.417 64.7937 407.644 64.632C412.819 63.95 418.282 63.2299 417.311 57.0172C416.625 52.6253 412.723 53.5664 408.519 55.359Z" fill="#6A1A15"/>
<path d="M416.195 103.888C416.195 118.802 369.215 115.364 321.876 115.364C274.116 115.364 239.75 110.554 239.75 95.6391C239.75 80.7241 279.128 66.7769 326.888 66.7769C374.648 66.7769 416.195 88.9726 416.195 103.888Z" fill="#350C09"/>
<path d="M210.865 23.2317C209.646 27.6383 218.64 40.3819 223.288 46.2028C225.82 48.2656 231.61 43.0775 234.188 40.2256C239.532 37.2253 233.836 31.7091 230.32 29.3261C227.39 22.7629 234.188 19.7157 236.18 19.2469C238.173 18.7781 245.791 20.6533 244.853 29.3261C243.915 37.9988 231.024 48.3124 225.632 52.0628C221.319 55.0631 221.491 62.2201 222.116 65.4235L223.757 114.53C223.952 143.049 224.39 203.742 224.578 218.369C224.812 236.652 225.398 263.842 227.508 262.905C229.195 262.155 230.477 210.79 230.906 185.201L234.188 103.045C235.047 92.6528 236.837 71.1663 237.118 68.3535C237.469 64.8375 242.743 57.2195 247.197 54.6412C251.651 52.0628 258.565 42.4524 260.089 37.8816C261.308 34.225 263.41 29.9511 264.308 28.2713C267.684 23.9583 262.902 17.6452 260.089 15.0277C247.549 0.49499 244.501 1.54979 230.32 2.72179C216.214 3.88757 212.429 17.577 210.89 23.1433L210.865 23.2317Z" fill="#451A01" stroke="black" stroke-width="3" stroke-linecap="round" stroke-linejoin="round"/>
<rect x="224.797" y="155.484" width="21.9287" height="10.0874" rx="5.0437" transform="rotate(15.7633 224.797 155.484)" fill="white" stroke="black"/>
<rect x="205.748" y="164.137" width="21.9287" height="10.0874" rx="5.0437" transform="rotate(-30 205.748 164.137)" fill="white" stroke="black"/>
<rect x="221.544" y="165.796" width="21.9287" height="10.0874" rx="5.0437" transform="rotate(15.7633 221.544 165.796)" fill="white" stroke="black"/>
<rect x="217.949" y="180.762" width="21.9287" height="8.14726" rx="4.07363" transform="rotate(30 217.949 180.762)" fill="white" stroke="black"/>
<rect x="219.685" y="176.338" width="21.9287" height="10.0874" rx="5.0437" transform="rotate(15.7633 219.685 176.338)" fill="white" stroke="black"/>
<path d="M104.555 169.101L152.754 215.81L164.68 229.972L126.915 239.164L89.8959 198.915L87.4114 161.399L104.555 169.101ZM159.408 169.93L147.421 222.485L172.96 239.164L175.655 212.243L172.96 161.399L159.408 169.93Z" stroke="black" stroke-width="3" stroke-linejoin="round"/>
<path d="M188.197 181.053C185.668 174.912 173.598 166.655 167.879 163.293L156.892 212.96L165.471 218.829L180.371 214.465L200.538 198.361C197.769 194.026 201.692 177.591 204 169.915C197.98 169.073 190.956 176.989 188.197 181.053Z" fill="#A9635E" stroke="black" stroke-width="3" stroke-linejoin="round"/>
<path d="M197.933 196.958C196.683 193.552 199.305 180.872 200.771 174.958C197.412 179.737 189.416 188.783 184.307 186.739C179.274 184.726 171.024 179.792 170.009 176.706L169.968 176.566C169.98 176.612 169.994 176.659 170.009 176.706L171.872 183.006L169.545 191.849L187.855 202.352C191.735 201.973 199.182 200.365 197.933 196.958Z" fill="#84211A"/>
<path d="M148.382 204.651L156.626 167.952L109.555 168.749L148.382 204.651Z" fill="#F6F5FD" stroke="#F6F5FD"/>
<path d="M148.964 213.966L103.824 170.04L98.1866 167.881L127.438 224.459L148.964 213.966Z" fill="#84211A"/>
<path d="M121.844 234.144L94.5601 166.584L99.8536 165.937L137.309 217.197L147.075 234.144H121.844Z" fill="black" fill-opacity="0.3"/>
<path opacity="0.3" d="M148.964 214.114L103.873 170.144L102.425 169.408L144.189 215.865L148.964 214.114Z" fill="white"/>
<path d="M150.601 214.033L160.811 170.823L169.072 165.624L174.428 212.565L150.601 214.033Z" fill="#84211A"/>
<path d="M174.087 215.045L169.168 165.592L165.726 167.898L157.6 213.361L162.103 213.362L174.087 215.045Z" fill="black" fill-opacity="0.3"/>
<path d="M107.191 179.491C101.224 166.908 91.354 163.816 88.6363 164.663C87.9681 165.286 97.8354 170.587 99.439 173.474C101.444 177.083 106.924 192.586 107.191 195.794C107.458 199.001 113.874 213.569 118.15 215.441C122.427 217.312 126.17 212.099 126.838 209.961C127.506 207.822 124.014 211.294 119.878 204.517C115.731 197.722 114.292 194.465 107.191 179.491Z" fill="#350D0A"/>
<path d="M61.7557 180.064C64.9714 161.109 75.2242 157.076 79.9486 157.428L94.9689 165.679L101.95 176.468C106.463 186.27 115.531 206.465 115.701 208.835C115.87 211.204 121.694 212.079 124.585 212.22C121.694 215.252 114.601 223.389 109.354 231.682C104.108 239.975 99.9754 259.818 98.565 268.703C91.3018 262.568 74.7869 248.183 66.8327 239.721C56.8899 229.144 57.7361 203.758 61.7557 180.064Z" fill="#84211A" stroke="black" stroke-width="3" stroke-linejoin="round"/>
<path d="M88.6411 222.675C90.1608 210.098 106.785 208.657 114.908 209.508L114.122 207.412C92.8988 196.355 88.2918 212.98 88.6411 222.675Z" fill="black" fill-opacity="0.5"/>
<path opacity="0.2" fill-rule="evenodd" clip-rule="evenodd" d="M111.072 208.759C106.626 209.888 96.0827 219.283 89.4772 232.155C81.5733 227.356 66.4429 213.059 69.1528 194.259C72.5402 170.758 86.5132 174.781 92.8646 178.38C97.9457 181.26 107.12 199.481 111.072 208.231L117.212 217.547L119.56 217.904C121.643 215.415 123.442 213.418 124.585 212.22C121.694 212.079 115.87 211.204 115.701 208.835C115.531 206.465 106.463 186.27 101.95 176.468L94.9689 165.679L79.9486 157.428C75.2242 157.076 64.9714 161.109 61.7557 180.064C57.7361 203.758 56.8899 229.144 66.8327 239.721C74.7869 248.183 91.3018 262.568 98.565 268.703C99.9754 259.818 104.108 239.975 109.354 231.682C112.09 227.358 115.328 223.076 118.21 219.538L111.072 208.759Z" fill="black"/>
<g opacity="0.3">
<path d="M150.674 213.905L160.715 170.738L161.911 170.156L153.79 213.538L150.674 213.905Z" fill="white"/>
<path d="M64.9893 182.912C65.5823 170.533 75.3662 162.559 80.184 160.119C79.4429 159.872 78.4488 159.222 73.1863 162.113C66.6081 165.726 64.9893 173.554 62.8585 185.784C60.946 196.761 62.1482 213.085 62.8585 220.62C63.6253 217.087 64.2481 198.384 64.9893 182.912Z" fill="white"/>
</g>
<path d="M148.866 209.664L157.657 169.494L153.872 171.081L148.011 199.607L116.35 171.662L106.498 169.494L148.866 209.664Z" fill="#D39413" stroke="black"/>
<path d="M181.184 191.849C177.891 189.237 170.921 181.188 170.401 177.734L168.267 181.203L156.629 213.849L166.848 219.384L182.461 213.849L200.771 198.662C200.204 197.999 197.904 196.845 193.249 197.526C187.429 198.378 185.3 195.113 181.184 191.849Z" fill="#5D1712"/>
<path d="M165.019 215.25C169.411 207.169 170.363 190.802 170.29 183.629C174.506 187.494 175.414 207.345 175.34 216.787L166.117 218.983L165.019 215.25Z" fill="#350D0A"/>
<path d="M158.71 168.583C143.393 182.462 119.558 175.095 109.555 169.677L112.446 160.69L147.925 157.408L158.71 168.583Z" fill="black" fill-opacity="0.15"/>
<path d="M351.475 165.551L303.275 212.26L291.35 226.422L329.114 235.615L366.133 195.366L368.618 157.85L351.475 165.551ZM296.622 166.38L308.608 218.936L283.069 235.615L280.375 208.693L283.069 157.85L296.622 166.38Z" stroke="black" stroke-width="3" stroke-linejoin="round"/>
<path d="M267.832 177.503C270.361 171.362 282.431 163.105 288.15 159.744L299.137 209.41L290.558 215.279L275.659 210.915L255.491 194.811C258.26 190.476 254.337 174.041 252.029 166.366C258.049 165.523 265.073 173.439 267.832 177.503Z" fill="#A9635E" stroke="black" stroke-width="3" stroke-linejoin="round"/>
<path d="M258.097 193.409C259.346 190.002 256.725 177.322 255.258 171.408C258.617 176.187 266.613 185.233 271.723 183.189C276.756 181.176 285.005 176.243 286.02 173.156L286.061 173.017C286.049 173.063 286.035 173.109 286.02 173.156L284.158 179.457L286.484 188.299L268.174 198.802C264.294 198.424 256.848 196.815 258.097 193.409Z" fill="#84211A"/>
<path d="M307.647 201.102L299.403 164.402L346.475 165.2L307.647 201.102Z" fill="#F6F5FD" stroke="#F6F5FD"/>
<path d="M307.065 210.416L352.206 166.491L357.843 164.331L328.592 220.909L307.065 210.416Z" fill="#84211A"/>
<path d="M334.185 230.594L361.469 163.034L356.176 162.387L318.72 213.648L308.954 230.594H334.185Z" fill="black" fill-opacity="0.3"/>
<path opacity="0.3" d="M307.065 210.564L352.156 166.595L353.604 165.858L311.84 212.315L307.065 210.564Z" fill="white"/>
<path d="M305.428 210.484L295.218 167.274L286.957 162.074L281.601 209.015L305.428 210.484Z" fill="#84211A"/>
<path d="M281.942 211.495L286.861 162.042L290.304 164.348L298.429 209.812L293.926 209.812L281.942 211.495Z" fill="black" fill-opacity="0.3"/>
<path d="M348.838 175.941C354.806 163.358 364.675 160.266 367.393 161.113C368.061 161.737 358.194 167.037 356.59 169.924C354.586 173.533 349.106 189.036 348.838 192.244C348.571 195.452 342.156 210.02 337.879 211.891C333.602 213.762 329.86 208.55 329.191 206.411C328.523 204.273 332.015 207.744 336.151 200.967C340.299 194.172 341.737 190.915 348.838 175.941Z" fill="#350D0A"/>
<path d="M394.274 176.514C391.058 157.559 380.805 153.526 376.081 153.879L361.06 162.129L354.079 172.918C349.566 182.72 340.498 202.916 340.329 205.285C340.159 207.654 334.335 208.529 331.444 208.67C334.335 211.702 341.429 219.84 346.675 228.132C351.921 236.425 356.054 256.268 357.464 265.153C364.727 259.018 381.242 244.633 389.197 236.171C399.139 225.594 398.293 200.208 394.274 176.514Z" fill="#84211A" stroke="black" stroke-width="3" stroke-linejoin="round"/>
<path d="M367.388 219.125C365.869 206.548 349.244 205.107 341.122 205.958L341.907 203.862C363.13 192.805 367.738 209.43 367.388 219.125Z" fill="black" fill-opacity="0.5"/>
<path opacity="0.2" fill-rule="evenodd" clip-rule="evenodd" d="M344.957 205.209C349.403 206.339 359.947 215.734 366.552 228.605C374.456 223.807 389.586 209.509 386.876 190.709C383.489 167.209 369.516 171.231 363.165 174.83C358.084 177.71 348.909 195.931 344.957 204.682L338.818 213.997L336.47 214.354C334.387 211.865 332.587 209.869 331.444 208.67C334.335 208.529 340.159 207.654 340.329 205.285C340.498 202.916 349.566 182.72 354.079 172.918L361.06 162.129L376.081 153.879C380.805 153.526 391.058 157.559 394.274 176.514C398.293 200.208 399.139 225.594 389.197 236.171C381.242 244.633 364.727 259.018 357.464 265.153C356.054 256.268 351.921 236.425 346.675 228.132C343.939 223.808 340.702 219.527 337.819 215.989L344.957 205.209Z" fill="black"/>
<g opacity="0.3">
<path d="M305.355 210.355L295.314 167.188L294.118 166.607L302.239 209.988L305.355 210.355Z" fill="white"/>
<path d="M391.04 179.362C390.447 166.984 380.663 159.009 375.845 156.57C376.586 156.323 377.58 155.673 382.843 158.563C389.421 162.177 391.04 170.004 393.171 182.234C395.083 193.211 393.881 209.535 393.171 217.071C392.404 213.537 391.781 194.834 391.04 179.362Z" fill="white"/>
</g>
<path d="M307.163 206.114L298.372 165.944L302.157 167.532L308.018 196.058L339.679 168.113L349.531 165.944L307.163 206.114Z" fill="#D39413" stroke="black"/>
<path d="M274.845 188.299C278.138 185.687 285.108 177.638 285.629 174.184L287.762 177.654L299.401 210.299L289.181 215.835L273.568 210.299L255.258 195.112C255.826 194.449 258.125 193.295 262.781 193.976C268.6 194.828 270.729 191.563 274.845 188.299Z" fill="#5D1712"/>
<path d="M291.01 211.7C286.618 203.619 285.666 187.252 285.739 180.079C281.523 183.944 280.616 203.795 280.689 213.238L289.912 215.433L291.01 211.7Z" fill="#350D0A"/>
<path d="M297.319 165.033C312.636 178.912 336.472 171.545 346.475 166.127L343.583 157.14L308.104 153.858L297.319 165.033Z" fill="black" fill-opacity="0.15"/>
<path d="M184.321 132.639C184.321 141.116 182.762 147.778 179.984 153.015C177.212 158.241 173.181 162.135 168.092 165.019C157.837 170.83 143.313 172.532 126.334 172.532C109.517 172.532 93.5886 168.856 81.9139 161.032C70.3073 153.253 62.8306 141.338 62.8306 124.547C62.8306 90.9869 92.8835 68.7817 126.334 68.7817C159.348 68.7817 184.321 98.654 184.321 132.639Z" fill="white" stroke="black" stroke-width="3"/>
<path fill-rule="evenodd" clip-rule="evenodd" d="M151.11 72.1912C147.599 71.5645 143.966 71.2358 140.233 71.2358C105.353 71.2358 73.5664 92.369 73.5664 124.712C73.5664 157.055 105.353 170.923 140.233 170.923C148.661 170.923 156.578 170.554 163.739 169.539C153.999 172.972 141.866 174.032 128.395 174.032C94.3857 174.032 63.3916 159.182 63.3916 124.547C63.3916 89.9124 94.3857 67.2817 128.395 67.2817C136.533 67.2817 144.182 69.0406 151.11 72.1912Z" fill="black" fill-opacity="0.15"/>
<ellipse cx="105.234" cy="121.079" rx="5.29077" ry="7.46948" fill="black"/>
<ellipse cx="152.54" cy="123.88" rx="5.29077" ry="7.46948" fill="black"/>
<path d="M98.0762 105.206C102.292 103.665 110.974 102.896 115.505 105.206C117.019 102.896 104.201 97.3492 98.0762 105.206Z" fill="black" stroke="black" stroke-linejoin="round"/>
<path d="M161.254 108.086C157.258 106.718 149.667 105.693 143.826 108.086C144.387 104.862 155.13 100.229 161.254 108.086Z" fill="black" stroke="black" stroke-linejoin="round"/>
<path d="M131.387 142.698C126.309 143.137 121.591 139.537 119.867 137.683C119.491 144.453 127.861 146.198 132.092 146.225C139.929 146.036 141.313 139.72 141.026 136.585C138.644 141.852 133.607 142.855 131.387 142.698Z" fill="black" stroke="black" stroke-linejoin="round"/>
<ellipse cx="95.7759" cy="139.404" rx="11.0146" ry="9.4082" fill="#ED9DC4"/>
<ellipse cx="161.254" cy="140.404" rx="9.84333" ry="8.40771" fill="#ED9DC4"/>
<path d="M82.3217 61.3706C84.2543 63.1744 87.6627 79.4121 87.6627 79.4121C100.044 68.3375 123.422 67.6194 132.956 68.7144C129.864 66.5886 134.116 55.5728 136.048 47.6491C137.594 41.3102 136.692 38.5659 136.048 37.9861C129.091 30.0624 123.486 47.2626 119.621 47.6491C115.756 48.0356 115.756 39.7255 105.706 34.3142C95.6568 28.9029 96.0433 46.1031 94.8838 49.002C93.9561 51.3211 91.6626 51.2566 90.6318 50.9345C75.5575 46.2963 71.8858 55.1862 74.2049 55.5728C76.0602 55.882 80.3891 59.5668 82.3217 61.3706Z" fill="#F9B221" stroke="black" stroke-width="3" stroke-linejoin="round"/>
<path d="M94.2791 273.711L133.952 213.203H327.645L357.605 274.158L94.2791 273.711Z" fill="#7C4A1B" stroke="black" stroke-width="2"/>
<rect x="92.7598" y="275.783" width="265.762" height="6.02441" fill="#7C4A1B" stroke="black" stroke-width="2"/>
<rect x="108.292" y="283.808" width="4.86475" height="44.0225" fill="#7C4A1B" stroke="black" stroke-width="2"/>
<rect x="115.156" y="283.808" width="4.86475" height="44.0225" fill="#7C4A1B" stroke="black" stroke-width="2"/>
<rect x="331.621" y="283.808" width="4.86475" height="44.0225" fill="#7C4A1B" stroke="black" stroke-width="2"/>
<rect x="338.486" y="283.808" width="4.86475" height="44.0225" fill="#7C4A1B" stroke="black" stroke-width="2"/>
<rect x="122.021" y="283.808" width="207.6" height="70.5498" fill="#7C4A1B" stroke="black" stroke-width="2"/>
<rect x="107.978" y="282.366" width="236.067" height="7.39551" fill="black" fill-opacity="0.2"/>
<path fill-rule="evenodd" clip-rule="evenodd" d="M202.072 208.656C210.462 208.656 218.139 209.849 224.053 211.823C229.442 210.408 235.93 209.583 242.912 209.583C261.604 209.583 276.756 215.501 276.756 222.802C276.756 229.252 264.926 234.624 249.277 235.787C250.513 236.51 251.571 237.283 252.428 238.096C258.048 236.473 265.001 235.514 272.527 235.514C291.219 235.514 306.372 241.432 306.372 248.733C306.372 256.033 291.219 261.952 272.527 261.952C258.389 261.952 246.275 258.566 241.213 253.756C235.592 255.379 228.639 256.339 221.113 256.339C213.725 256.339 206.89 255.414 201.325 253.845C195.458 257.773 184.554 260.413 172.071 260.413C153.379 260.413 138.227 254.495 138.227 247.194C138.227 239.893 153.379 233.975 172.071 233.975C179.459 233.975 186.294 234.9 191.859 236.469C192.74 235.879 193.734 235.318 194.83 234.791C179.618 233.496 168.228 228.205 168.228 221.875C168.228 214.575 183.381 208.656 202.072 208.656Z" fill="black" fill-opacity="0.2"/>
<path d="M189.697 242.21C189.697 249.83 178.6 253.664 165.781 253.077C152.962 252.491 142.77 247.633 143.094 240.546C143.345 235.077 153.562 235.742 166.381 236.329C179.2 236.916 189.947 236.741 189.697 242.21Z" fill="#AE7D09"/>
<ellipse cx="166.474" cy="240.774" rx="23.2346" ry="9.9126" transform="rotate(2.62025 166.474 240.774)" fill="#DD9F0E"/>
<path d="M189.938 238.455C189.938 246.075 178.841 249.908 166.022 249.322C153.203 248.735 143.011 243.878 143.335 236.791C143.585 231.322 153.803 231.987 166.622 232.574C179.44 233.16 190.188 232.986 189.938 238.455Z" fill="#AE7D09"/>
<ellipse cx="166.715" cy="237.529" rx="23.2346" ry="9.9126" transform="rotate(2.62025 166.715 237.529)" fill="#DD9F0E"/>
<path d="M264.269 215.637C264.269 223.257 253.172 227.09 240.353 226.503C227.534 225.917 217.342 221.06 217.666 213.973C217.917 208.504 228.134 209.169 240.953 209.755C253.772 210.342 264.519 210.168 264.269 215.637Z" fill="#AE7D09"/>
<ellipse cx="241.046" cy="214.201" rx="23.2346" ry="9.9126" transform="rotate(2.62025 241.046 214.201)" fill="#DD9F0E"/>
<path d="M217.106 212.866C217.106 220.487 206.009 224.32 193.19 223.733C180.372 223.147 170.179 218.29 170.504 211.202C170.754 205.734 180.972 206.399 193.79 206.985C206.609 207.572 217.357 207.398 217.106 212.866Z" fill="#AE7D09"/>
<ellipse cx="193.883" cy="211.431" rx="23.2346" ry="9.9126" transform="rotate(2.62025 193.883 211.431)" fill="#DD9F0E"/>
<path d="M217.347 209.111C217.347 216.731 206.25 220.565 193.431 219.978C180.612 219.391 170.42 214.534 170.744 207.447C170.995 201.978 181.212 202.643 194.031 203.23C206.85 203.817 217.597 203.642 217.347 209.111Z" fill="#AE7D09"/>
<ellipse cx="194.124" cy="208.186" rx="23.2346" ry="9.9126" transform="rotate(2.62025 194.124 208.186)" fill="#DD9F0E"/>
<path d="M264.51 211.881C264.51 219.501 253.412 223.335 240.594 222.748C227.775 222.161 217.583 217.304 217.907 210.217C218.157 204.748 228.375 205.413 241.194 206C254.012 206.587 264.76 206.412 264.51 211.881Z" fill="#AE7D09"/>
<ellipse cx="241.286" cy="210.956" rx="23.2346" ry="9.9126" transform="rotate(2.62025 241.286 210.956)" fill="#DD9F0E"/>
<path d="M217.588 206.072C217.588 213.692 206.49 217.525 193.672 216.939C180.853 216.352 170.661 211.495 170.985 204.408C171.235 198.939 181.453 199.604 194.272 200.19C207.09 200.777 217.838 200.603 217.588 206.072Z" fill="#AE7D09"/>
<ellipse cx="194.365" cy="204.636" rx="23.2346" ry="9.9126" transform="rotate(2.62025 194.365 204.636)" fill="#DD9F0E"/>
<path d="M217.828 202.316C217.828 209.936 206.731 213.77 193.912 213.183C181.094 212.597 170.902 207.739 171.226 200.652C171.476 195.183 181.694 195.848 194.512 196.435C207.331 197.022 218.079 196.847 217.828 202.316Z" fill="#AE7D09"/>
<ellipse cx="194.605" cy="201.391" rx="23.2346" ry="9.9126" transform="rotate(2.62025 194.605 201.391)" fill="#DD9F0E"/>
<path d="M264.75 208.842C264.75 216.462 253.653 220.295 240.834 219.709C228.016 219.122 217.823 214.265 218.148 207.178C218.398 201.709 228.616 202.374 241.434 202.96C254.253 203.547 265.001 203.373 264.75 208.842Z" fill="#AE7D09"/>
<ellipse cx="241.527" cy="207.406" rx="23.2346" ry="9.9126" transform="rotate(2.62025 241.527 207.406)" fill="#DD9F0E"/>
<path d="M218.069 199.494C218.069 207.114 206.972 210.948 194.153 210.361C181.334 209.774 171.142 204.917 171.467 197.83C171.717 192.361 181.934 193.026 194.753 193.613C207.572 194.199 218.319 194.025 218.069 199.494Z" fill="#AE7D09"/>
<ellipse cx="194.846" cy="198.568" rx="23.2346" ry="9.9126" transform="rotate(2.62025 194.846 198.568)" fill="#DD9F0E"/>
<path d="M218.31 196.622C218.31 204.243 207.213 208.076 194.394 207.489C181.575 206.903 171.383 202.046 171.707 194.958C171.958 189.489 182.175 190.155 194.994 190.741C207.813 191.328 218.56 191.154 218.31 196.622Z" fill="#AE7D09"/>
<ellipse cx="195.087" cy="195.697" rx="23.2346" ry="9.9126" transform="rotate(2.62025 195.087 195.697)" fill="#DD9F0E"/>
<path d="M219.928 193.969C219.928 201.589 208.83 205.422 196.012 204.835C183.193 204.249 173.001 199.392 173.325 192.305C173.575 186.836 183.793 187.501 196.612 188.087C209.43 188.674 220.178 188.5 219.928 193.969Z" fill="#AE7D09"/>
<ellipse cx="196.704" cy="193.043" rx="23.2346" ry="9.9126" transform="rotate(2.62025 196.704 193.043)" fill="#DD9F0E"/>
<path d="M246.484 240.216C246.484 247.836 235.387 251.67 222.568 251.083C209.75 250.496 199.557 245.639 199.882 238.552C200.132 233.083 210.349 233.748 223.168 234.335C235.987 234.922 246.734 234.747 246.484 240.216Z" fill="#AE7D09"/>
<ellipse cx="223.261" cy="239.291" rx="23.2346" ry="9.9126" transform="rotate(2.62025 223.261 239.291)" fill="#DD9F0E"/>
<path d="M246.725 237.394C246.725 245.014 235.628 248.847 222.809 248.261C209.99 247.674 199.798 242.817 200.122 235.73C200.373 230.261 210.59 230.926 223.409 231.513C236.228 232.099 246.975 231.925 246.725 237.394Z" fill="#AE7D09"/>
<ellipse cx="223.502" cy="236.468" rx="23.2346" ry="9.9126" transform="rotate(2.62025 223.502 236.468)" fill="#DD9F0E"/>
<path d="M246.966 234.522C246.966 242.142 235.868 245.976 223.05 245.389C210.231 244.803 200.039 239.945 200.363 232.858C200.613 227.389 210.831 228.054 223.65 228.641C236.468 229.228 247.216 229.053 246.966 234.522Z" fill="#AE7D09"/>
<ellipse cx="223.743" cy="233.597" rx="23.2346" ry="9.9126" transform="rotate(2.62025 223.743 233.597)" fill="#DD9F0E"/>
<path d="M245.762 228.592C245.762 236.212 234.665 240.045 221.846 239.459C209.027 238.872 198.835 234.015 199.159 226.928C199.41 221.459 209.627 222.124 222.446 222.71C235.265 223.297 246.012 223.123 245.762 228.592Z" fill="#AE7D09"/>
<ellipse cx="222.539" cy="227.666" rx="23.2346" ry="9.9126" transform="rotate(2.62025 222.539 227.666)" fill="#DD9F0E"/>
<path d="M245.062 225.073C245.062 232.693 233.965 236.527 221.146 235.94C208.327 235.353 198.135 230.496 198.459 223.409C198.71 217.94 208.927 218.605 221.746 219.192C234.565 219.779 245.312 219.604 245.062 225.073Z" fill="#AE7D09"/>
<ellipse cx="221.839" cy="223.637" rx="23.2346" ry="9.9126" transform="rotate(2.62025 221.839 223.637)" fill="#DD9F0E"/>
<path d="M301.268 248.759C301.268 256.379 290.171 260.213 277.352 259.626C264.533 259.039 254.341 254.182 254.665 247.095C254.916 241.626 265.133 242.291 277.952 242.878C290.771 243.465 301.518 243.29 301.268 248.759Z" fill="#AE7D09"/>
<ellipse cx="278.045" cy="247.323" rx="23.2346" ry="9.9126" transform="rotate(2.62025 278.045 247.323)" fill="#DD9F0E"/>
<path d="M301.509 245.004C301.509 252.624 290.411 256.457 277.593 255.871C264.774 255.284 254.582 250.427 254.906 243.34C255.156 237.871 265.374 238.536 278.193 239.123C291.011 239.709 301.759 239.535 301.509 245.004Z" fill="#AE7D09"/>
<ellipse cx="278.285" cy="244.078" rx="23.2346" ry="9.9126" transform="rotate(2.62025 278.285 244.078)" fill="#DD9F0E"/>
<path d="M301.749 241.964C301.749 249.584 290.652 253.418 277.833 252.831C265.015 252.244 254.822 247.387 255.147 240.3C255.397 234.831 265.615 235.496 278.433 236.083C291.252 236.67 302 236.495 301.749 241.964Z" fill="#AE7D09"/>
<ellipse cx="278.526" cy="240.528" rx="23.2346" ry="9.9126" transform="rotate(2.62025 278.526 240.528)" fill="#DD9F0E"/>
<path d="M301.99 238.209C301.99 245.829 290.893 249.662 278.074 249.076C265.255 248.489 255.063 243.632 255.387 236.545C255.638 231.076 265.855 231.741 278.674 232.328C291.493 232.914 302.24 232.74 301.99 238.209Z" fill="#AE7D09"/>
<ellipse cx="278.767" cy="237.283" rx="23.2346" ry="9.9126" transform="rotate(2.62025 278.767 237.283)" fill="#DD9F0E"/>
<path d="M302.231 235.387C302.231 243.007 291.134 246.84 278.315 246.253C265.496 245.667 255.304 240.81 255.628 233.723C255.878 228.254 266.096 228.919 278.915 229.505C291.733 230.092 302.481 229.918 302.231 235.387Z" fill="#AE7D09"/>
<ellipse cx="279.008" cy="234.461" rx="23.2346" ry="9.9126" transform="rotate(2.62025 279.008 234.461)" fill="#DD9F0E"/>
<path d="M302.471 232.515C302.471 240.135 291.374 243.969 278.556 243.382C265.737 242.795 255.545 237.938 255.869 230.851C256.119 225.382 266.337 226.047 279.155 226.634C291.974 227.22 302.722 227.046 302.471 232.515Z" fill="#AE7D09"/>
<ellipse cx="279.248" cy="231.589" rx="23.2346" ry="9.9126" transform="rotate(2.62025 279.248 231.589)" fill="#DD9F0E"/>
<path d="M304.089 229.861C304.089 237.481 292.992 241.315 280.173 240.728C267.354 240.141 257.162 235.284 257.487 228.197C257.737 222.728 267.954 223.393 280.773 223.98C293.592 224.567 304.339 224.392 304.089 229.861Z" fill="#AE7D09"/>
<ellipse cx="280.866" cy="228.936" rx="23.2346" ry="9.9126" transform="rotate(2.62025 280.866 228.936)" fill="#DD9F0E"/>
<path d="M308.271 226.94C308.271 234.56 297.174 238.393 284.355 237.807C271.537 237.22 261.344 232.363 261.669 225.276C261.919 219.807 272.137 220.472 284.955 221.059C297.774 221.645 308.522 221.471 308.271 226.94Z" fill="#AE7D09"/>
<ellipse cx="285.048" cy="226.014" rx="23.2346" ry="9.9126" transform="rotate(2.62025 285.048 226.014)" fill="#DD9F0E"/>
<path d="M299.223 220.601C299.223 228.222 288.126 232.055 275.307 231.468C262.488 230.882 252.296 226.025 252.62 218.937C252.871 213.469 263.088 214.134 275.907 214.72C288.726 215.307 299.473 215.133 299.223 220.601Z" fill="#AE7D09"/>
<ellipse cx="276" cy="219.676" rx="23.2346" ry="9.9126" transform="rotate(2.62025 276 219.676)" fill="#DD9F0E"/>
<path d="M305.931 219.557C305.931 227.177 294.834 231.011 282.015 230.424C269.197 229.837 259.005 224.98 259.329 217.893C259.579 212.424 269.797 213.089 282.615 213.676C295.434 214.262 306.182 214.088 305.931 219.557Z" fill="#AE7D09"/>
<ellipse cx="282.708" cy="218.631" rx="23.2346" ry="9.9126" transform="rotate(2.62025 282.708 218.631)" fill="#DD9F0E"/>
<path d="M190.178 235.415C190.178 243.036 179.081 246.869 166.263 246.282C153.444 245.696 143.252 240.839 143.576 233.751C143.826 228.282 154.044 228.948 166.863 229.534C179.681 230.121 190.429 229.946 190.178 235.415Z" fill="#AE7D09"/>
<ellipse cx="166.955" cy="233.98" rx="23.2346" ry="9.9126" transform="rotate(2.62025 166.955 233.98)" fill="#DD9F0E"/>
<path d="M190.419 231.66C190.419 239.28 179.322 243.114 166.503 242.527C153.685 241.94 143.492 237.083 143.817 229.996C144.067 224.527 154.285 225.192 167.103 225.779C179.922 226.365 190.669 226.191 190.419 231.66Z" fill="#AE7D09"/>
<ellipse cx="167.196" cy="230.734" rx="23.2346" ry="9.9126" transform="rotate(2.62025 167.196 230.734)" fill="#DD9F0E"/>
<path d="M190.66 228.838C190.66 236.458 179.563 240.291 166.744 239.705C153.925 239.118 143.733 234.261 144.057 227.174C144.308 221.705 154.525 222.37 167.344 222.957C180.163 223.543 190.91 223.369 190.66 228.838Z" fill="#AE7D09"/>
<ellipse cx="167.437" cy="227.912" rx="23.2346" ry="9.9126" transform="rotate(2.62025 167.437 227.912)" fill="#DD9F0E"/>
<path d="M190.901 225.966C190.901 233.586 179.803 237.419 166.985 236.833C154.166 236.246 143.974 231.389 144.298 224.302C144.548 218.833 154.766 219.498 167.585 220.084C180.403 220.671 191.151 220.497 190.901 225.966Z" fill="#AE7D09"/>
<ellipse cx="167.678" cy="225.04" rx="23.2346" ry="9.9126" transform="rotate(2.62025 167.678 225.04)" fill="#DD9F0E"/>
<path d="M192.518 223.312C192.518 230.932 181.421 234.766 168.602 234.179C155.784 233.593 145.591 228.735 145.916 221.648C146.166 216.179 156.384 216.845 169.202 217.431C182.021 218.018 192.769 217.843 192.518 223.312Z" fill="#AE7D09"/>
<ellipse cx="169.295" cy="222.387" rx="23.2346" ry="9.9126" transform="rotate(2.62025 169.295 222.387)" fill="#DD9F0E"/>
<path d="M189.726 219.311C189.726 226.931 178.629 230.764 165.81 230.178C152.992 229.591 142.799 224.734 143.124 217.647C143.374 212.178 153.592 212.843 166.41 213.43C179.229 214.016 189.977 213.842 189.726 219.311Z" fill="#AE7D09"/>
<ellipse cx="166.503" cy="218.385" rx="23.2346" ry="9.9126" transform="rotate(2.62025 166.503 218.385)" fill="#DD9F0E"/>
<path d="M194.258 216.517C194.258 224.138 183.161 227.971 170.342 227.384C157.523 226.798 147.331 221.941 147.656 214.853C147.906 209.385 158.123 210.05 170.942 210.636C183.761 211.223 194.508 211.049 194.258 216.517Z" fill="#AE7D09"/>
<ellipse cx="171.035" cy="215.592" rx="23.2346" ry="9.9126" transform="rotate(2.62025 171.035 215.592)" fill="#DD9F0E"/>
<path d="M252.656 225.937C252.656 233.557 241.558 237.391 228.74 236.804C215.921 236.218 205.729 231.36 206.053 224.273C206.303 218.804 216.521 219.47 229.34 220.056C242.158 220.643 252.906 220.468 252.656 225.937Z" fill="#AE7D09"/>
<ellipse cx="229.432" cy="225.012" rx="23.2346" ry="9.9126" transform="rotate(2.62025 229.432 225.012)" fill="#DD9F0E"/>
<path d="M264.991 205.086C264.991 212.706 253.894 216.54 241.075 215.953C228.256 215.367 218.064 210.509 218.388 203.422C218.639 197.953 228.856 198.618 241.675 199.205C254.494 199.792 265.241 199.617 264.991 205.086Z" fill="#AE7D09"/>
<ellipse cx="241.768" cy="204.161" rx="23.2346" ry="9.9126" transform="rotate(2.62025 241.768 204.161)" fill="#DD9F0E"/>
<path d="M267.09 196.739C267.09 204.359 255.993 208.192 243.174 207.606C230.355 207.019 220.163 202.162 220.488 195.075C220.738 189.606 230.955 190.271 243.774 190.857C256.593 191.444 267.34 191.27 267.09 196.739Z" fill="#AE7D09"/>
<ellipse cx="243.867" cy="195.813" rx="23.2346" ry="9.9126" transform="rotate(2.62025 243.867 195.813)" fill="#DD9F0E"/>
<path d="M242.533 224.675C242.533 232.295 231.436 236.129 218.618 235.542C205.799 234.955 195.607 230.098 195.931 223.011C196.181 217.542 206.399 218.207 219.217 218.794C232.036 219.381 242.784 219.206 242.533 224.675Z" fill="#AE7D09"/>
<ellipse cx="219.31" cy="223.75" rx="23.2346" ry="9.9126" transform="rotate(2.62025 219.31 223.75)" fill="#DD9F0E"/>
<path d="M252.55 222.043C252.55 229.663 241.453 233.496 228.634 232.91C215.815 232.323 205.623 227.466 205.948 220.379C206.198 214.91 216.415 215.575 229.234 216.162C242.053 216.748 252.8 216.574 252.55 222.043Z" fill="#AE7D09"/>
<ellipse cx="229.327" cy="220.607" rx="23.2346" ry="9.9126" transform="rotate(2.62025 229.327 220.607)" fill="#DD9F0E"/>
<path d="M240.086 222.665C240.086 230.285 228.989 234.118 216.17 233.532C203.352 232.945 193.159 228.088 193.484 221.001C193.734 215.532 203.952 216.197 216.77 216.784C229.589 217.37 240.336 217.196 240.086 222.665Z" fill="#AE7D09"/>
<ellipse cx="216.863" cy="221.739" rx="23.2346" ry="9.9126" transform="rotate(2.62025 216.863 221.739)" fill="#DD9F0E"/>
<path d="M248.992 215.637C248.992 223.257 237.895 227.09 225.077 226.503C212.258 225.917 202.066 221.06 202.39 213.973C202.64 208.504 212.858 209.169 225.676 209.755C238.495 210.342 249.243 210.168 248.992 215.637Z" fill="#AE7D09"/>
<ellipse cx="225.769" cy="214.711" rx="23.2346" ry="9.9126" transform="rotate(2.62025 225.769 214.711)" fill="#DD9F0E"/>
<path d="M260.86 128.715C260.239 137.17 261.306 143.927 263.694 149.354C266.076 154.768 269.811 158.947 274.675 162.196C284.477 168.742 298.838 171.503 315.771 172.745C332.543 173.976 348.698 171.475 360.914 164.526C373.059 157.618 381.387 146.282 382.616 129.536C385.072 96.066 356.725 71.7209 323.364 69.2728C290.439 66.8567 263.347 94.8211 260.86 128.715Z" fill="white" stroke="black" stroke-width="3"/>
<path fill-rule="evenodd" clip-rule="evenodd" d="M297.016 69.5671C300.528 68.9405 304.161 68.6118 307.894 68.6118C342.774 68.6118 374.561 89.745 374.561 122.088C374.561 154.431 342.774 168.299 307.894 168.299C299.466 168.299 291.549 167.93 284.388 166.915C294.128 170.348 306.261 171.408 319.732 171.408C353.741 171.408 384.735 156.558 384.735 121.923C384.735 87.2883 353.741 64.6577 319.732 64.6577C311.594 64.6577 303.945 66.4166 297.016 69.5671Z" fill="black" fill-opacity="0.15"/>
<ellipse cx="5.29077" cy="7.46948" rx="5.29077" ry="7.46948" transform="matrix(-1 0 0 1 340.768 113.742)" fill="black"/>
<ellipse cx="5.29077" cy="7.46948" rx="5.29077" ry="7.46948" transform="matrix(-1 0 0 1 298.837 109.62)" fill="black"/>
<path d="M340.768 107.809C338.036 105.275 331.652 102.338 327.464 103.379C327.039 100.802 338.575 98.7977 340.768 107.809Z" fill="black" stroke="black" stroke-linejoin="round"/>
<path d="M284.701 103.241C288.697 101.873 295.422 98.1419 301.264 100.535C300.703 97.3103 290.825 95.3839 284.701 103.241Z" fill="black" stroke="black" stroke-linejoin="round"/>
<ellipse cx="11.0146" cy="7.36108" rx="11.0146" ry="7.36108" transform="matrix(-0.961638 -0.274321 -0.274321 0.961638 361.952 134.724)" fill="#ED9DC4"/>
<ellipse cx="9.84333" cy="6.26489" rx="9.84333" ry="6.26489" transform="matrix(-1 0 0 1 291.088 126.251)" fill="#ED9DC4"/>
<path d="M299.886 135.198C303.071 136.57 312.233 139.05 323.404 137.991M323.404 137.991V135.198M323.404 137.991L325.351 140.96M301.326 132.516L299.735 135.198L298.836 137.598" stroke="black" stroke-width="2" stroke-linecap="round" stroke-linejoin="round"/>
<path d="M310.926 150.296C304.344 147.785 305.658 140.445 307.137 137.089C309.736 137.782 317.458 138.244 320.994 138.388C320.388 150.859 314.03 151.523 310.926 150.296Z" fill="#B5748F" stroke="black" stroke-width="2" stroke-linecap="round" stroke-linejoin="round"/>
<path d="M354.713 120.424C345.103 112.383 339.432 87.0031 337.798 75.318L332.895 66.4927C341.475 67.555 361.136 70.4151 371.138 73.3569C383.64 77.034 384.621 93.2136 389.278 115.767C393.005 133.81 377.838 149.166 371.138 152.761C373.344 151.045 380.159 142.635 378.982 137.34C377.511 130.721 366.725 130.476 354.713 120.424Z" fill="#825D43"/>
<path d="M258.218 90.7867C260.666 86.9921 279.434 81.9633 288.513 79.9232C289.482 79.6172 291.147 83.5618 280.556 90.7867C268.801 98.806 271.121 122.357 271.835 132.251C268.775 129.926 264.997 119.286 264.181 115.767C258.428 124.458 272.012 154.507 275.99 161.954C277.316 162.668 270.739 160.484 267.556 158.158C263.578 155.251 256.33 132.24 254.231 126.362C252.122 120.458 255.157 95.5298 258.218 90.7867Z" fill="#825D43"/>
<path d="M354.713 120.424C345.103 112.383 339.432 87.0031 337.798 75.318L332.895 66.4927C341.475 67.555 361.136 70.4151 371.138 73.3569C383.64 77.034 384.621 93.2136 389.278 115.767C393.005 133.81 377.838 149.166 371.138 152.761C373.344 151.045 380.159 142.635 378.982 137.34C377.511 130.721 366.725 130.476 354.713 120.424Z" stroke="black"/>
<path d="M258.218 90.7867C260.666 86.9921 279.434 81.9633 288.513 79.9232C289.482 79.6172 291.147 83.5618 280.556 90.7867C268.801 98.806 271.121 122.357 271.835 132.251C268.775 129.926 264.997 119.286 264.181 115.767C258.428 124.458 272.012 154.507 275.99 161.954C277.316 162.668 270.739 160.484 267.556 158.158C263.578 155.251 256.33 132.24 254.231 126.362C252.122 120.458 255.157 95.5298 258.218 90.7867Z" stroke="black"/>
<path d="M355.688 88.1362C348.235 79.3109 342.94 73.8363 341.224 72.2021C344.902 72.8558 353.482 74.3103 358.385 74.8986C363.287 75.487 375.626 79.7198 381.183 81.7627C382.21 86.898 383.734 94.2753 385.034 100.061C386.478 103.487 387.557 106.669 387.557 108.483C387.557 110.611 386.423 106.245 385.034 100.061C383.2 95.7122 380.776 90.9704 379.222 88.1362C377.016 88.1362 383.389 105.051 383.389 110.445C383.389 114.759 386.168 122.538 387.557 125.889L383.389 122.212C382.736 120.087 380.987 113.68 379.222 105.051C377.457 96.4223 373.093 88.0547 371.132 84.9495C371.541 88.2181 372.701 96.8145 374.074 105.051C375.447 113.288 380.856 123.846 383.389 128.095C379.222 128.095 380.448 125.889 371.132 112.161C361.817 98.4325 365.003 99.1679 355.688 88.1362Z" fill="#553722"/>
<path d="M349.069 105.051C345.539 99.364 342.368 83.8872 341.224 76.8598C342.695 79.1478 346.323 85.3418 349.069 91.8136C351.028 96.4308 353.02 102.154 354.386 106.331C354.324 103.686 354.861 100.334 353.482 95.7359C351.275 88.3816 349.069 84.9495 351.03 84.9495C352.991 84.9495 359.283 92.61 358.385 98.1873C357.486 103.765 362.797 116.083 366.719 122.212C367.811 123.917 369.469 125.455 371.314 126.783C375.901 128.178 381.183 128.751 381.183 131.772C378.892 131.026 374.773 129.273 371.314 126.783C369.574 126.254 367.933 125.607 366.719 124.663C362.307 121.231 353.482 112.161 349.069 105.051Z" fill="#553722"/>
<path d="M257.14 110.445C256.551 104.169 260.49 92.9575 262.533 88.1362L289.009 79.8015C287.538 81.5175 283.812 85.5869 280.674 88.1362C276.752 91.3229 272.094 102.355 268.417 114.612C264.739 126.869 268.417 108.483 270.133 100.884C271.849 93.2845 271.603 91.8136 268.417 95.7359C265.23 99.6582 262.533 122.212 262.533 117.309C262.533 112.406 265.475 101.865 265.475 95.7359V88.1362C263.023 88.1362 260.572 110.445 260.572 114.612C260.572 117.946 261.879 127.441 262.533 131.772C260.327 127.36 257.875 118.289 257.14 110.445Z" fill="#553722"/>
<path d="M417.508 102.076C414.906 109.578 372.137 78.47 321.477 76.5133C267.819 74.4406 245.533 105.285 238.111 94.7063C238.111 78.7334 272.862 65.459 324.01 65.459C363.622 67.3365 422.743 86.985 417.508 102.076Z" fill="#84211A"/>
<path fill-rule="evenodd" clip-rule="evenodd" d="M415.724 103.241C412.533 103.195 406.281 100.542 397.746 96.9221C380.006 89.397 352.408 77.6901 321.959 76.5139C290.572 75.3016 269.919 85.352 256.697 91.7866C249.297 95.3878 244.224 97.8564 240.899 96.5844C249.444 83.9146 281.055 74.3408 324.492 74.3408C357.589 75.9095 404.305 89.8842 415.724 103.241Z" fill="black" fill-opacity="0.3"/>
<path opacity="0.3" fill-rule="evenodd" clip-rule="evenodd" d="M415.605 94.8656C411.454 93.6386 405.833 91.5043 399.111 88.952C378.101 80.9745 346.335 68.9129 315.062 67.705C283.212 66.4747 259.579 79.2758 244.077 87.6724C242.235 88.6699 240.509 89.6053 238.896 90.4475C244.476 76.4414 277.434 65.459 323.957 65.459C357.472 67.0475 404.954 81.3579 415.605 94.8656Z" fill="white"/>
<path d="M137.658 297.249C137.138 297.249 136.778 297.339 136.578 297.519C136.358 297.699 136.228 298.029 136.188 298.509L133.938 298.479C133.938 297.279 134.308 296.359 135.048 295.719C135.648 295.179 136.528 294.909 137.688 294.909H144.438C145.598 294.909 146.648 295.149 147.588 295.629C148.548 296.109 149.298 296.769 149.838 297.609C150.378 298.449 150.648 299.409 150.648 300.489C150.648 301.449 150.438 302.279 150.018 302.979C149.598 303.679 149.008 304.209 148.248 304.569C148.008 304.689 147.658 304.799 147.198 304.899C147.458 304.899 147.798 304.969 148.218 305.109C148.658 305.249 149.098 305.439 149.538 305.679C150.138 305.999 150.618 306.539 150.978 307.299C151.358 308.059 151.548 309.019 151.548 310.179C151.548 312.159 150.818 313.649 149.358 314.649C147.898 315.629 145.958 316.119 143.538 316.119H142.548C141.488 316.119 140.478 316.069 139.518 315.969L137.658 315.759V297.249ZM143.658 313.839C145.418 313.839 146.768 313.549 147.708 312.969C148.668 312.389 149.148 311.449 149.148 310.149C149.148 308.889 148.718 307.899 147.858 307.179C146.998 306.439 145.918 306.069 144.618 306.069H141.798L141.828 303.849L144.408 303.819C145.568 303.819 146.498 303.519 147.198 302.919C147.878 302.319 148.218 301.509 148.218 300.489C148.218 299.469 147.908 298.669 147.288 298.089C146.668 297.489 145.848 297.189 144.828 297.189H140.118V313.689C141.498 313.789 142.678 313.839 143.658 313.839ZM161.48 316.119C160.06 316.119 158.78 315.779 157.64 315.099C156.52 314.419 155.64 313.489 155 312.309C154.36 311.109 154.04 309.759 154.04 308.259C154.04 306.759 154.36 305.409 155 304.209C155.66 302.989 156.55 302.039 157.67 301.359C158.81 300.659 160.09 300.309 161.51 300.309C162.93 300.309 164.2 300.649 165.32 301.329C166.46 302.009 167.35 302.959 167.99 304.179C168.63 305.379 168.95 306.729 168.95 308.229C168.95 309.729 168.63 311.079 167.99 312.279C167.35 313.479 166.46 314.419 165.32 315.099C164.18 315.779 162.9 316.119 161.48 316.119ZM161.51 313.899C163.01 313.899 164.21 313.379 165.11 312.339C166.03 311.299 166.49 309.929 166.49 308.229C166.49 306.509 166.03 305.129 165.11 304.089C164.21 303.049 163.01 302.529 161.51 302.529C160.53 302.529 159.66 302.769 158.9 303.249C158.14 303.729 157.55 304.399 157.13 305.259C156.71 306.119 156.5 307.109 156.5 308.229C156.5 309.929 156.96 311.299 157.88 312.339C158.8 313.379 160.01 313.899 161.51 313.899ZM178.474 300.309C179.054 300.309 179.744 300.409 180.544 300.609L180.484 302.979C179.684 302.759 179.034 302.649 178.534 302.649C177.594 302.649 176.864 302.869 176.344 303.309C175.744 303.789 175.224 304.429 174.784 305.229V315.849H172.324V305.229C172.324 303.669 171.904 302.529 171.064 301.809L172.714 300.279C173.014 300.459 173.314 300.729 173.614 301.089C173.934 301.449 174.194 301.859 174.394 302.319C174.834 301.759 175.284 301.329 175.744 301.029C176.504 300.549 177.414 300.309 178.474 300.309ZM189.753 300.309C190.333 300.309 191.023 300.409 191.823 300.609L191.763 302.979C190.963 302.759 190.313 302.649 189.813 302.649C188.873 302.649 188.143 302.869 187.623 303.309C187.023 303.789 186.503 304.429 186.063 305.229V315.849H183.603V305.229C183.603 303.669 183.183 302.529 182.343 301.809L183.993 300.279C184.293 300.459 184.593 300.729 184.893 301.089C185.213 301.449 185.473 301.859 185.673 302.319C186.113 301.759 186.563 301.329 187.023 301.029C187.783 300.549 188.693 300.309 189.753 300.309ZM200.357 316.119C198.937 316.119 197.657 315.779 196.517 315.099C195.397 314.419 194.517 313.489 193.877 312.309C193.237 311.109 192.917 309.759 192.917 308.259C192.917 306.759 193.237 305.409 193.877 304.209C194.537 302.989 195.427 302.039 196.547 301.359C197.687 300.659 198.967 300.309 200.387 300.309C201.807 300.309 203.077 300.649 204.197 301.329C205.337 302.009 206.227 302.959 206.867 304.179C207.507 305.379 207.827 306.729 207.827 308.229C207.827 309.729 207.507 311.079 206.867 312.279C206.227 313.479 205.337 314.419 204.197 315.099C203.057 315.779 201.777 316.119 200.357 316.119ZM200.387 313.899C201.887 313.899 203.087 313.379 203.987 312.339C204.907 311.299 205.367 309.929 205.367 308.229C205.367 306.509 204.907 305.129 203.987 304.089C203.087 303.049 201.887 302.529 200.387 302.529C199.407 302.529 198.537 302.769 197.777 303.249C197.017 303.729 196.427 304.399 196.007 305.259C195.587 306.119 195.377 307.109 195.377 308.229C195.377 309.929 195.837 311.299 196.757 312.339C197.677 313.379 198.887 313.899 200.387 313.899ZM210.895 303.549C210.795 303.209 210.575 302.879 210.235 302.559C209.915 302.219 209.625 301.979 209.365 301.839L210.565 299.889C211.865 300.669 212.785 301.869 213.325 303.489L216.025 311.619L219.625 300.549H221.815L225.445 311.619L229.045 300.549H231.535L226.555 315.819H224.335L220.735 304.749L217.105 315.819H214.885L210.895 303.549Z" fill="white"/>
<path d="M233.909 332.027V335.852C233.909 338.282 233.294 340.472 232.064 342.422C230.834 344.372 229.199 345.902 227.159 347.012C225.149 348.092 223.004 348.632 220.724 348.632C217.874 348.632 215.294 347.942 212.984 346.562C210.674 345.152 208.859 343.232 207.539 340.802C206.219 338.342 205.559 335.612 205.559 332.612C205.559 329.702 206.249 327.032 207.629 324.602C209.009 322.172 210.884 320.252 213.254 318.842C215.624 317.432 218.234 316.727 221.084 316.727C222.524 316.727 224.069 316.967 225.719 317.447C227.369 317.897 228.779 318.632 229.949 319.652C231.149 320.672 231.749 321.932 231.749 323.432C231.749 324.752 231.314 325.877 230.444 326.807C229.574 327.707 228.524 328.157 227.294 328.157C226.724 328.157 226.139 328.052 225.539 327.842C224.969 327.602 224.489 327.272 224.099 326.852L226.169 324.287C226.559 324.617 226.919 324.782 227.249 324.782C227.579 324.782 227.834 324.677 228.014 324.467C228.194 324.227 228.284 323.927 228.284 323.567C228.284 322.457 227.489 321.617 225.899 321.047C224.339 320.447 222.749 320.147 221.129 320.147C218.879 320.147 216.839 320.702 215.009 321.812C213.209 322.922 211.799 324.437 210.779 326.357C209.759 328.247 209.249 330.347 209.249 332.657C209.249 335.087 209.744 337.262 210.734 339.182C211.754 341.102 213.134 342.587 214.874 343.637C216.614 344.687 218.564 345.212 220.724 345.212C222.434 345.212 224.009 344.807 225.449 343.997C226.889 343.187 228.029 342.077 228.869 340.667C229.739 339.257 230.189 337.682 230.219 335.942V335.447H219.554V332.027H233.909ZM247.696 348.497C245.686 348.497 243.946 347.972 242.476 346.922C241.036 345.842 239.926 344.402 239.146 342.602C238.396 340.802 238.021 338.852 238.021 336.752C238.021 334.472 238.456 332.432 239.326 330.632C240.196 328.832 241.471 327.407 243.151 326.357C244.861 325.307 246.901 324.782 249.271 324.782C249.961 324.782 250.816 324.827 251.836 324.917C252.886 324.977 253.771 325.067 254.491 325.187H257.506V343.862C257.506 344.282 257.596 344.612 257.776 344.852C257.986 345.062 258.286 345.167 258.676 345.167C259.186 345.167 259.591 344.912 259.891 344.402L262.411 346.067C262.021 346.817 261.451 347.417 260.701 347.867C259.981 348.287 259.201 348.497 258.361 348.497C257.251 348.497 256.291 348.182 255.481 347.552C254.701 346.892 254.281 346.127 254.221 345.257V345.302C253.711 346.292 252.856 347.072 251.656 347.642C250.456 348.212 249.136 348.497 247.696 348.497ZM247.966 345.167C249.166 345.167 250.231 344.852 251.161 344.222C252.091 343.592 252.796 342.797 253.276 341.837C253.546 341.327 253.696 340.892 253.726 340.532C253.786 340.172 253.816 339.767 253.816 339.317V328.427L251.926 328.292C250.426 328.172 249.421 328.112 248.911 328.112C246.631 328.112 244.861 328.922 243.601 330.542C242.341 332.162 241.711 334.217 241.711 336.707C241.711 339.017 242.266 341.012 243.376 342.692C244.486 344.342 246.016 345.167 247.966 345.167ZM301.022 346.067C300.602 346.847 300.047 347.462 299.357 347.912C298.697 348.332 297.917 348.542 297.017 348.542C295.607 348.542 294.482 348.137 293.642 347.327C292.832 346.487 292.427 345.347 292.427 343.907V332.297C292.307 330.827 291.947 329.792 291.347 329.192C290.747 328.592 289.847 328.292 288.647 328.292C287.447 328.292 286.367 328.592 285.407 329.192C284.477 329.762 283.652 330.752 282.932 332.162V348.092H279.242V332.882C279.242 331.412 278.927 330.287 278.297 329.507C277.667 328.697 276.737 328.292 275.507 328.292C274.277 328.292 273.137 328.652 272.087 329.372C271.037 330.062 270.272 330.947 269.792 332.027V348.092H266.102V332.297C266.102 329.957 265.472 328.247 264.212 327.167L266.687 324.872C267.167 325.142 267.647 325.577 268.127 326.177C268.607 326.747 268.997 327.407 269.297 328.157C270.137 327.167 271.112 326.387 272.222 325.817C273.332 325.247 274.502 324.962 275.732 324.962C277.052 324.962 278.267 325.292 279.377 325.952C280.487 326.612 281.342 327.497 281.942 328.607C282.812 327.497 283.832 326.612 285.002 325.952C286.172 325.292 287.402 324.962 288.692 324.962C290.942 324.962 292.742 325.577 294.092 326.807C295.442 328.037 296.117 329.837 296.117 332.207V344.042C296.117 344.372 296.222 344.657 296.432 344.897C296.642 345.107 296.912 345.212 297.242 345.212C297.722 345.212 298.097 344.942 298.367 344.402L301.022 346.067ZM312.93 348.497C310.71 348.497 308.805 348.017 307.215 347.057C305.655 346.067 304.47 344.747 303.66 343.097C302.85 341.417 302.445 339.542 302.445 337.472C302.445 335.432 302.835 333.452 303.615 331.532C304.395 329.612 305.565 328.022 307.125 326.762C308.685 325.502 310.605 324.872 312.885 324.872C314.385 324.872 315.78 325.172 317.07 325.772C318.36 326.342 319.38 327.182 320.13 328.292C320.91 329.372 321.3 330.632 321.3 332.072C321.3 334.382 320.355 336.197 318.465 337.517C316.575 338.837 314.115 339.467 311.085 339.407L306.405 339.317C306.735 341.177 307.455 342.617 308.565 343.637C309.705 344.627 311.205 345.122 313.065 345.122C315.495 345.122 317.805 344.312 319.995 342.692L322.02 345.257C319.17 347.417 316.14 348.497 312.93 348.497ZM311.085 336.167C313.095 336.167 314.685 335.822 315.855 335.132C317.025 334.442 317.61 333.407 317.61 332.027C317.61 330.797 317.16 329.852 316.26 329.192C315.39 328.532 314.34 328.202 313.11 328.202C311.73 328.202 310.53 328.622 309.51 329.462C308.49 330.272 307.71 331.292 307.17 332.522C306.63 333.752 306.315 334.967 306.225 336.167H311.085Z" fill="white"/>
</svg>
